<?xml version="1.0" encoding="UTF-8" standalone="no"?>
<!-- Created with Inkscape (http://www.inkscape.org/) -->

<svg
   width="210mm"
   height="297mm"
   viewBox="0 0 210 297"
   version="1.1"
   id="svg1"
   xml:space="preserve"
   xmlns:inkscape="http://www.inkscape.org/namespaces/inkscape"
   xmlns:sodipodi="http://sodipodi.sourceforge.net/DTD/sodipodi-0.dtd"
   xmlns="http://www.w3.org/2000/svg"
   xmlns:svg="http://www.w3.org/2000/svg"><sodipodi:namedview
     id="namedview1"
     pagecolor="#ffffff"
     bordercolor="#000000"
     borderopacity="0.25"
     inkscape:showpageshadow="2"
     inkscape:pageopacity="0.0"
     inkscape:pagecheckerboard="0"
     inkscape:deskcolor="#d1d1d1"
     inkscape:document-units="mm"><inkscape:page
       x="0"
       y="0"
       width="210"
       height="297"
       id="page2"
       margin="0"
       bleed="0" /></sodipodi:namedview><defs
     id="defs1" /><g
     inkscape:label="Layer 1"
     inkscape:groupmode="layer"
     id="layer1"><path
       style="opacity:0.791262;fill:#000000;fill-opacity:0.996078;stroke-width:0.264583"
       d="m 65.62989,58.450649 c 0,0 78.11065,-0.35913 78.11065,-0.35913 0,0 50.99637,50.457681 50.99637,50.457681 0,0 -1.07739,83.67714 -1.07739,83.67714 0,0 -47.94377,46.32769 -47.94377,46.32769 0,0 -82.59976,0.17957 -82.59976,0.17957 0,0 -47.76421,-47.94377 -47.76421,-47.94377 0,0 -0.53869,-81.70194 -0.53869,-81.70194 z"
       id="path1062" /><path
       style="opacity:1;fill:#122268;fill-opacity:0.996078;stroke-width:0.264583"
       d="m 42.28648,122.01655 c 0,0 21.54777,11.49214 21.54777,11.49214 0,0 9.51693,-65.720679 9.51693,-65.720679 0,0 -2.15478,-1.61608 -2.15478,-1.61608 z"
       id="path1065" /><path
       style="fill:#000000;stroke-width:0.264583"
       d="m 53.23993,184.3255 c 0,0 0,0 0,0 0,0 -11.67171,-59.97461 -11.67171,-59.97461"
       id="path1066" /><path
       style="opacity:1;fill:#334375;fill-opacity:0.996078;stroke-width:0.264583"
       d="m 41.74779,123.8122 c 0,0 11.6717,60.5133 11.6717,60.5133 0,0 9.51693,-49.20073 9.51693,-49.20073 z"
       id="path1067" /><path
       style="opacity:1;fill:#2d3e71;fill-opacity:0.996078;stroke-width:0.264583"
       d="m 82.50897,198.51111 c 0,0 48.12334,16.16082 48.12334,16.16082 0,0 -3.95042,-23.52297 -3.95042,-23.52297 z"
       id="path1068" /><path
       style="opacity:1;fill:#0e1e59;fill-opacity:0.996078;stroke-width:0.264583"
       d="m 135.66012,215.03106 c 0,0 47.58465,-29.62817 47.58465,-29.62817 0,0 -3.5913,-3.95043 -3.5913,-3.95043 0,0 -50.27811,8.61911 -50.27811,8.61911 z"
       id="path1069" /><path
       style="opacity:1;fill:#1f42bc;fill-opacity:0.996078;stroke-width:0.264583"
       d="m 73.67961,67.677008 c 0,0 -23.74366,136.049862 -23.74366,136.049862 0,0 131.89475,-22.72332 131.89475,-22.72332 z"
       id="path1070" /><path
       style="opacity:1;fill:#38cff2;fill-opacity:0.996078;stroke-width:0.264583"
       d="m 14.82836,110.59335 c 0,0 26.79096,13.26851 26.79096,13.26851 0,0 11.74486,60.40665 11.74486,60.40665 0,0 -3.5552,19.52185 -3.5552,19.52185 0,0 32.56817,-5.01537 32.56817,-5.01537 0,0 49.17543,16.34585 49.17543,16.34585 0,0 18.4051,19.3966 18.4051,19.3966 0,0 -4.26941,4.04722 -4.26941,4.04722 0,0 -82.61078,0.20632 -82.61078,0.20632 0,0 -47.72538,-47.97138 -47.72538,-47.97138 z"
       id="path1071" /><path
       style="opacity:1;fill:#47adf9;fill-opacity:0.996078;stroke-width:0.264583"
       d="m 173.35217,229.18464 c 0,0 0,0 0,0 m -21.61688,3.58695 c 0,0 40.77369,-39.40875 40.77369,-39.40875 0,0 -8.89386,-8.01607 -8.89386,-8.01607 0,0 -48.38612,29.90276 -48.38612,29.90276 z"
       id="path1072" /><path
       style="opacity:1;fill:#3ebdf4;fill-opacity:0.996078;stroke-width:0.264583"
       d="m 14.82836,109.13317 c 0,0 50.07435,-49.963246 50.07435,-49.963246 0,0 6.33858,6.912223 6.33858,6.912223 0,0 -28.92362,55.811653 -28.92362,55.811653 z"
       id="path1073" /><path
       style="opacity:1;fill:#46f1fe;fill-opacity:0.996078;stroke-width:0.264583"
       d="m 65.64866,58.439838 c 0,0 78.27144,-0.348319 78.27144,-0.348319 0,0 50.76326,50.533771 50.76326,50.533771 0,0 -1.07925,83.67416 -1.07925,83.67416 z"
       id="path1074" /></g></svg>
